<svg id="category_black_24dp" xmlns="http://www.w3.org/2000/svg" width="14" height="14" viewBox="0 0 14 14">
  <path id="Path_35" data-name="Path 35" d="M0,0H14V14H0Z" fill="none"/>
  <path id="Path_36" data-name="Path 36" d="M9.385,3.181,7.362,6.487a.543.543,0,0,0,.462.827h4.041a.543.543,0,0,0,.462-.827L10.309,3.181a.54.54,0,0,0-.924,0Z" transform="translate(-2.847 -1.332)" fill="#535353"/>
  <circle id="Ellipse_13" data-name="Ellipse 13" cx="2.5" cy="2.5" r="2.5" transform="translate(7.948 7.948)" fill="#535353"/>
  <path id="Path_37" data-name="Path 37" d="M3.544,17.851H6.807a.545.545,0,0,0,.544-.544V14.044a.545.545,0,0,0-.544-.544H3.544A.545.545,0,0,0,3,14.044v3.263A.545.545,0,0,0,3.544,17.851Z" transform="translate(-1.369 -5.21)" fill="#535353"/>
</svg>
