<svg id="shopping_bag_black_24dp" xmlns="http://www.w3.org/2000/svg" width="14" height="14" viewBox="0 0 14 14">
  <rect id="Rectangle_30" data-name="Rectangle 30" width="14" height="14" fill="none"/>
  <path id="Path_34" data-name="Path 34" d="M12.9,4.392H11.627A2.47,2.47,0,0,0,9.084,2,2.47,2.47,0,0,0,6.542,4.392H5.271A1.239,1.239,0,0,0,4,5.588v7.177a1.239,1.239,0,0,0,1.271,1.2H12.9a1.239,1.239,0,0,0,1.271-1.2V5.588A1.239,1.239,0,0,0,12.9,4.392ZM7.813,6.784a.637.637,0,0,1-1.271,0v-1.2H7.813ZM9.084,3.2a1.239,1.239,0,0,1,1.271,1.2H7.813A1.239,1.239,0,0,1,9.084,3.2Zm2.542,3.588a.637.637,0,0,1-1.271,0v-1.2h1.271Z" transform="translate(-2.208 -1.104)" fill="#535353"/>
</svg>
