<svg id="confirmation_number_black_24dp" xmlns="http://www.w3.org/2000/svg" width="24" height="24" viewBox="0 0 24 24">
  <path id="Path_28" data-name="Path 28" d="M0,0H24V24H0Z" fill="none"/>
  <path id="Path_29" data-name="Path 29" d="M22,8.54V6a2.006,2.006,0,0,0-2-2H4A1.991,1.991,0,0,0,2.01,6V8.54a1.882,1.882,0,0,0,.94,1.69A2.02,2.02,0,0,1,4,12a1.99,1.99,0,0,1-1.06,1.76A1.93,1.93,0,0,0,2,15.46V18a2.006,2.006,0,0,0,2,2H20a2.006,2.006,0,0,0,2-2V15.46a1.93,1.93,0,0,0-.94-1.7,1.991,1.991,0,0,1,0-3.52A1.93,1.93,0,0,0,22,8.54ZM13,17.5H11v-2h2ZM13,13H11V11h2Zm0-4.5H11v-2h2Z" fill="#535353"/>
</svg>
